Wanted *2008*[BluRay][1080p][ENG, POL]

General information:
Country: USA, Germany 
Release: 12 June 2008
Genre: Action, Crime, Thriller 
Director: Timur Bekmambetov
Screenplay: Michael Brandt, Derek Haas, Chris Morgan, Michael Brandt, Derek Haas, Mark Millar  (comic book series) and J.G. Jones   (comic book series)
Original Music: Danny Elfman 
Cinematography by: Mitchell Amundsen 
Duration:  1h 49mn
Language: English, Polish
Subtitles: English, Polish
Rating: 6.8/10 - 34419 votes 

Cast:
James McAvoy  ...  Wesley  
Morgan Freeman  ...  Sloan  
Angelina Jolie  ...  Fox  
Terence Stamp  ...  Pekwarsky  
Thomas Kretschmann  ...  Cross  
Common  ...  The Gunsmith  
Kristen Hager  ...  Cathy  
Marc Warren  ...  The Repairman  
David O'Hara  ...  Mr. X (as David Patrick O'Hara)  
Konstantin Khabenskiy  ...  The Exterminator (as Konstantin Khabensky)  
Dato Bakhtadze  ...  The Butcher  
Chris Pratt  ...  Barry  
Lorna Scott  ...  Janice  
Sophiya Haque  ...  Puja  
Brian Caspe  ...  The Pharmacist  

Plot:
A frustrated office worker learns that he is the son of a professional assassin, and that he shares his father's superhuman killing abilities. 

Specifications:
General
Format                           : Matroska
Overall bit rate                 : 9 625 Kbps

Video
Format                           : AVC
Format/Info                      : Advanced Video Codec
Format profile                   : High@L4.0
Format settings, CABAC           : Yes
Format settings, ReFrames        : 3 frames
Format settings, GOP             : M=4, N=29
Muxing mode                      : Container profile=Unknown@4.0
Codec ID                         : V_MPEG4/ISO/AVC
Bit rate                         : 8 570 Kbps
Width                            : 1 920 pixels
Height                           : 1 080 pixels
Display aspect ratio             : 16:9
Frame rate                       : 23.976 fps

Audio 1
Format                           : AC-3
Format/Info                      : Audio Coding 3
Mode extension                   : CM (complete main)
Codec ID                         : A_AC3
Bit rate mode                    : Constant
Bit rate                         : 640 Kbps
Channel(s)                       : 6 channels
Channel positions                : Front: L C R, Side: L R, LFE
Sampling rate                    : 48.0 KHz
Stream size                      : 503 MiB (7%)
Title                            : English

Audio 2
Format                           : AC-3
Format/Info                      : Audio Coding 3
Mode extension                   : CM (complete main)
Codec ID                         : A_AC3
Bit rate mode                    : Constant
Bit rate                         : 448 Kbps
Channel(s)                       : 6 channels
Channel positions                : Front: L C R, Side: L R, LFE
Sampling rate                    : 48.0 KHz
Stream size                      : 352 MiB (5%)
Title                            : Polish
Language                         : Polish

Text 1
Format                           : UTF-8
Codec ID                         : S_TEXT/UTF8
Codec ID/Info                    : UTF-8 Plain Text
Title                            : English

Text 2
Format                           : UTF-8
Codec ID                         : S_TEXT/UTF8
Codec ID/Info                    : UTF-8 Plain Text
Title                            : Polish
Language                         : Polish
